HIERARCHY
ROOT Hips
{
	OFFSET -0.001795 -0.223333 0.028219
	CHANNELS 6 Xposition Yposition Zposition Zrotation Yrotation Xrotation 
	JOINT LeftUpLeg
	{
		OFFSET 0.069520 -0.091406 -0.006815
		CHANNELS 3 Zrotation Yrotation Xrotation
		JOINT LeftLeg
		{
			OFFSET 0.034277 -0.375199 -0.004496
			CHANNELS 3 Zrotation Yrotation Xrotation
			JOINT LeftFoot
			{
				OFFSET -0.013596 -0.397961 -0.043693
				CHANNELS 3 Zrotation Yrotation Xrotation
				JOINT LeftToe
				{
					OFFSET 0.026358 -0.055791 0.119288
					CHANNELS 3 Zrotation Yrotation Xrotation
					End Site
					{
						OFFSET 0.000000 0.000000 0.000000
					}
				}
			}
		}
	}
	JOINT RightUpLeg
	{
		OFFSET -0.067670 -0.090522 -0.004320
		CHANNELS 3 Zrotation Yrotation Xrotation
		JOINT RightLeg
		{
			OFFSET -0.038290 -0.382569 -0.008850
			CHANNELS 3 Zrotation Yrotation Xrotation
			JOINT RightFoot
			{
				OFFSET 0.015774 -0.398415 -0.042312
				CHANNELS 3 Zrotation Yrotation Xrotation
				JOINT RightToe
				{
					OFFSET -0.025372 -0.048144 0.123348
					CHANNELS 3 Zrotation Yrotation Xrotation
					End Site
					{
						OFFSET 0.000000 0.000000 0.000000
					}
				}
			}
		}
	}
	JOINT Spine
	{
		OFFSET -0.002533 0.108963 -0.026696
		CHANNELS 3 Zrotation Yrotation Xrotation
		JOINT Spine1
		{
			OFFSET 0.005487 0.135180 0.001092
			CHANNELS 3 Zrotation Yrotation Xrotation
			JOINT Spine2
			{
				OFFSET 0.001457 0.052922 0.025425
				CHANNELS 3 Zrotation Yrotation Xrotation
				JOINT Neck
				{
					OFFSET -0.002778 0.213870 -0.042857
					CHANNELS 3 Zrotation Yrotation Xrotation
					JOINT Head
					{
						OFFSET 0.005152 0.064970 0.051349
						CHANNELS 3 Zrotation Yrotation Xrotation
						End Site
						{
							OFFSET 0.000000 0.000000 0.000000
						}
					}
				}
				JOINT LeftShoulder
				{
					OFFSET 0.078845 0.121749 -0.034090
					CHANNELS 3 Zrotation Yrotation Xrotation
					JOINT LeftArm
					{
						OFFSET 0.090977 0.030469 -0.008868
						CHANNELS 3 Zrotation Yrotation Xrotation
						JOINT LeftForeArm
						{
							OFFSET 0.259612 -0.012772 -0.027456
							CHANNELS 3 Zrotation Yrotation Xrotation
							JOINT LeftHand
							{
								OFFSET 0.249234 0.008986 -0.001171
								CHANNELS 3 Zrotation Yrotation Xrotation
								End Site
								{
									OFFSET 0.000000 0.000000 0.000000
								}
							}
						}
					}
				}
				JOINT RightShoulder
				{
					OFFSET -0.081759 0.118833 -0.038615
					CHANNELS 3 Zrotation Yrotation Xrotation
					JOINT RightArm
					{
						OFFSET -0.096012 0.032551 -0.009143
						CHANNELS 3 Zrotation Yrotation Xrotation
						JOINT RightForeArm
						{
							OFFSET -0.253742 -0.013329 -0.021401
							CHANNELS 3 Zrotation Yrotation Xrotation
							JOINT RightHand
							{
								OFFSET -0.255298 0.007772 -0.005559
								CHANNELS 3 Zrotation Yrotation Xrotation
								End Site
								{
									OFFSET 0.000000 0.000000 0.000000
								}
							}
						}
					}
				}
			}
		}
	}
}
MOTION
Frames: 8
Frame Time: 0.050000
0.000000 0.947436 0.000000 0.038760 -0.471865 -4.093057 3.957535 0.389962 6.915580 -4.749419 0.518246 -1.909397 8.788477 18.541795 11.729482 0.000000 0.000000 0.000000 -4.836910 -0.177962 4.384306 2.408484 -0.246769 0.542077 -5.272216 -14.591282 9.415209 0.000000 0.000000 0.000000 5.365958 -0.156233 2.091479 -2.899337 1.336762 -18.205478 -2.636467 4.139845 26.766494 6.112550 -1.302668 -26.031263 0.000000 0.000000 0.000000 -1.862250 -34.711737 11.889564 -23.751989 -51.690740 4.696098 125.159734 -46.756718 -74.186883 0.000000 0.000000 0.000000 6.532741 24.451312 10.029512 41.704611 54.827908 14.573683 -144.930953 51.732599 -99.696145 0.000000 0.000000 0.000000 
-0.000096 0.946774 -0.000245 0.622671 -0.485186 -3.973808 3.602020 0.415844 6.947355 -3.956533 0.442957 -2.416238 8.985782 18.868321 12.595430 0.000000 0.000000 0.000000 -5.773787 -0.095743 3.790421 1.878258 -0.162762 1.591827 -4.983753 -13.918100 8.580757 0.000000 0.000000 0.000000 5.238554 -0.219661 2.832842 -3.385322 1.479458 -18.532977 -2.487217 4.414727 26.242117 5.499202 -0.934736 -25.609667 0.000000 0.000000 0.000000 0.657538 -35.583377 11.487937 -23.409870 -55.242903 5.212456 121.768084 -47.284657 -71.285605 0.000000 0.000000 0.000000 7.135612 25.149648 10.487934 40.756366 54.501654 14.040762 -143.298103 49.845430 -94.751678 0.000000 0.000000 0.000000 
-0.000017 0.945684 -0.000229 0.469291 -0.478640 -3.765975 4.102572 0.360809 6.579744 -3.423727 0.393814 -2.390527 8.444017 18.075064 13.170030 0.000000 0.000000 0.000000 -5.866186 -0.090029 3.810768 2.480971 -0.234691 1.617331 -5.497884 -15.063509 9.744070 0.000000 0.000000 0.000000 5.519198 -0.305826 3.701261 -4.194296 1.715728 -18.886459 -1.666457 4.181704 24.605621 6.049651 -1.396107 -24.528396 0.000000 0.000000 0.000000 0.792027 -35.632711 11.517902 -22.399724 -57.194631 5.239370 119.741693 -46.314945 -67.882990 0.000000 0.000000 0.000000 4.073151 24.341122 9.396553 41.935525 55.174191 15.128758 -142.749949 49.594231 -93.855915 0.000000 0.000000 0.000000 
-0.000005 0.945853 -0.000397 0.276404 0.209675 -4.467901 4.196844 0.397809 7.508394 -3.085158 0.363730 -3.110980 8.037907 17.516614 13.267423 0.000000 0.000000 0.000000 -5.943654 -0.169952 5.044317 2.952487 -0.308234 0.843715 -6.316741 -16.669714 10.847538 0.000000 0.000000 0.000000 5.757391 -0.355918 4.304356 -4.324233 1.784904 -18.452403 -1.760317 3.821381 24.867059 5.729389 -1.118004 -25.215268 0.000000 0.000000 0.000000 2.000233 -38.039788 11.896391 -19.239994 -56.102792 3.701831 118.118782 -43.524499 -62.918480 0.000000 0.000000 0.000000 4.300088 25.743071 9.989873 40.716993 55.712466 14.817392 -142.005691 47.958248 -90.502084 0.000000 0.000000 0.000000 
-0.000031 0.946248 -0.000490 0.254816 0.384535 -4.933457 3.928167 0.431849 7.783968 -2.379221 0.305922 -3.223170 7.187191 16.262964 13.306160 0.000000 0.000000 0.000000 -5.890255 -0.197857 5.339622 2.740646 -0.292422 0.389208 -6.181538 -16.482414 11.723628 0.000000 0.000000 0.000000 5.307797 -0.411844 5.197116 -4.350552 1.803765 -18.267466 -1.632578 3.408156 24.352376 5.418605 -1.112314 -24.143379 0.000000 0.000000 0.000000 2.395766 -37.819391 11.721860 -18.085668 -57.004265 3.370108 118.322277 -43.053169 -62.458583 0.000000 0.000000 0.000000 2.900533 26.129012 9.742947 40.775368 56.234182 15.145237 -142.145911 47.517257 -90.385971 0.000000 0.000000 0.000000 
0.000007 0.946032 -0.000504 0.140898 0.715835 -5.052961 4.117588 0.410989 7.770991 -2.138891 0.288424 -3.475377 7.809513 17.239757 13.702463 0.000000 0.000000 0.000000 -5.736442 -0.227797 5.576403 2.454883 -0.266490 0.159900 -6.490447 -17.039493 12.028618 0.000000 0.000000 0.000000 5.004697 -0.389442 5.075661 -3.919441 1.686863 -17.901002 -1.744088 3.181955 24.491491 5.143186 -0.893269 -24.622301 0.000000 0.000000 0.000000 2.755824 -38.426245 11.792111 -16.321705 -57.907234 2.684421 119.040858 -41.196066 -60.712113 0.000000 0.000000 0.000000 1.950994 27.043402 9.829731 40.870736 57.404433 15.801080 -139.927264 45.954623 -84.924337 0.000000 0.000000 0.000000 
0.000022 0.945809 -0.000579 -0.054564 1.106984 -4.756482 4.436030 0.360804 7.458364 -2.157348 0.290900 -3.690556 7.986150 17.531773 13.849557 0.000000 0.000000 0.000000 -5.712166 -0.224092 5.365964 2.515482 -0.281457 -0.198034 -6.611157 -17.254321 12.569302 0.000000 0.000000 0.000000 4.682413 -0.353763 4.723824 -3.722523 1.634786 -17.900833 -1.674331 2.704428 24.472517 4.864548 -0.697330 -25.221990 0.000000 0.000000 0.000000 2.557055 -38.500858 11.892249 -16.070536 -58.616645 2.684289 118.963543 -41.175084 -60.466728 0.000000 0.000000 0.000000 1.618652 28.105048 10.115935 38.211390 58.043476 14.707271 -137.112682 44.738041 -79.609377 0.000000 0.000000 0.000000 
0.000001 0.945467 -0.000640 -0.101297 1.157192 -4.479167 4.589810 0.318755 6.894676 -2.193031 0.293296 -3.716512 8.193740 17.839799 13.941892 0.000000 0.000000 0.000000 -5.616435 -0.225448 5.337567 2.524892 -0.288425 -0.541401 -7.055937 -18.050377 12.869314 0.000000 0.000000 0.000000 4.241968 -0.345662 4.767174 -3.455484 1.549994 -18.179995 -1.508795 2.585349 24.370763 4.483997 -0.400879 -26.020975 0.000000 0.000000 0.000000 2.283222 -38.173787 11.889517 -16.124131 -58.721085 2.735192 120.257469 -42.309594 -63.187622 0.000000 0.000000 0.000000 1.349824 28.723087 10.262145 37.183417 58.961700 14.574505 -136.276307 45.421013 -79.760473 0.000000 0.000000 0.000000 
